{
	"asset":{
		"generator":"Khronos glTF Blender I/O v3.6.27",
		"version":"2.0"
	},
	"extensionsUsed":[
		"KHR_materials_specular",
		"KHR_materials_ior"
	],
	"scene":0,
	"scenes":[
		{
			"name":"Scene",
			"nodes":[
				0
			]
		}
	],
	"nodes":[
		{
			"mesh":0,
			"name":"tommy",
			"rotation":[
				0.7071068286895752,
				0,
				0,
				0.7071068286895752
			]
		}
	],
	"materials":[
		{
			"doubleSided":true,
			"extensions":{
				"KHR_materials_specular":{
					"specularColorFactor":[
						0,
						0,
						0
					]
				},
				"KHR_materials_ior":{
					"ior":1.4500000476837158
				}
			},
			"name":"Root.0",
			"pbrMetallicRoughness":{
				"baseColorTexture":{
					"index":0
				},
				"metallicFactor":0
			}
		}
	],
	"meshes":[
		{
			"name":"Root",
			"primitives":[
				{
					"attributes":{
						"POSITION":0,
						"NORMAL":1,
						"TEXCOORD_0":2
					},
					"indices":3,
					"material":0
				}
			]
		}
	],
	"textures":[
		{
			"sampler":0,
			"source":0
		}
	],
	"images":[
		{
			"mimeType":"image/png",
			"name":"tommy",
			"uri":"tommy.png"
		}
	],
	"accessors":[
		{
			"bufferView":0,
			"componentType":5126,
			"count":1211,
			"max":[
				0.8737850189208984,
				0.17054599523544312,
				0.9814010262489319
			],
			"min":[
				-0.8722169995307922,
				-0.18429000675678253,
				-0.8547629714012146
			],
			"type":"VEC3"
		},
		{
			"bufferView":1,
			"componentType":5126,
			"count":1211,
			"type":"VEC3"
		},
		{
			"bufferView":2,
			"componentType":5126,
			"count":1211,
			"type":"VEC2"
		},
		{
			"bufferView":3,
			"componentType":5123,
			"count":4065,
			"type":"SCALAR"
		}
	],
	"bufferViews":[
		{
			"buffer":0,
			"byteLength":14532,
			"byteOffset":0,
			"target":34962
		},
		{
			"buffer":0,
			"byteLength":14532,
			"byteOffset":14532,
			"target":34962
		},
		{
			"buffer":0,
			"byteLength":9688,
			"byteOffset":29064,
			"target":34962
		},
		{
			"buffer":0,
			"byteLength":8130,
			"byteOffset":38752,
			"target":34963
		}
	],
	"samplers":[
		{
			"magFilter":9729,
			"minFilter":9987
		}
	],
	"buffers":[
		{
			"byteLength":46884,
			"uri":"tommy.bin"
		}
	]
}
