# Blender 3.6.0
# www.blender.org
mtllib trunk.mtl
o Cube
o trunk0
v 0.183057 0.689917 -0.218593
v 0.417702 -0.679712 -0.373436
v 0.202003 0.689917 0.224547
v 0.409315 -0.679712 0.388467
v -0.201415 0.689917 -0.256853
v -0.348906 -0.679712 -0.454318
v -0.190006 0.689917 0.259948
v -0.427977 -0.679712 0.412506
v -0.512247 -0.679712 0.001923
v 0.287847 0.689917 0.000832
v -0.301377 0.689917 -0.031145
v 0.469011 -0.679712 -0.023304
v -0.032756 -0.679712 -0.507263
v 0.020597 0.689917 0.330692
v 0.025879 -0.679712 0.536530
v -0.000631 0.689917 -0.329693
v 0.000000 -1.000000 -0.007597
v -0.000096 0.918362 -0.006201
vn -0.4351 0.8129 0.3872
vn -0.2782 0.1478 0.9491
vn -0.9234 0.1422 -0.3565
vn 0.3858 -0.8706 0.3054
vn 0.9640 0.1480 0.2208
vn 0.3568 0.1385 -0.9239
vn 0.9518 0.1615 -0.2609
vn 0.3478 -0.8655 -0.3606
vn -0.9487 0.1734 0.2645
vn -0.4096 0.8136 -0.4126
vn 0.4787 0.7722 -0.4178
vn -0.3613 -0.8682 -0.3402
vn -0.2339 0.1469 -0.9611
vn -0.3320 -0.8821 0.3342
vn 0.4056 0.1531 0.9012
vn 0.4685 0.7978 0.3795
vt 0.685780 0.768249
vt 0.547678 0.664068
vt 0.690524 0.557551
vt 0.804422 0.602949
vt 0.129294 0.648703
vt 0.128199 0.987300
vt 0.084542 0.987300
vt 0.035213 0.648703
vt 0.210037 0.690717
vt 0.215628 0.966905
vt 0.253792 0.966905
vt 0.287181 0.690717
vt 0.323951 0.277078
vt 0.400316 0.435879
vt 0.504571 0.331544
vt 0.479750 0.173957
vt 0.269452 0.644889
vt 0.264655 0.969496
vt 0.220197 0.969496
vt 0.187622 0.644889
vt 0.234533 0.703781
vt 0.240301 0.997078
vt 0.273284 0.997078
vt 0.315417 0.703781
vt 0.389177 0.649501
vt 0.360743 0.949443
vt 0.320451 0.949443
vt 0.324883 0.649501
vt 0.179335 0.368790
vt 0.294098 0.490739
vt 0.140614 0.690717
vt 0.166409 0.966905
vt 0.580199 0.934482
vt 0.517299 0.819023
vt 0.695628 0.948662
vt 0.812295 0.876464
vt 0.139640 0.253049
vt 0.238422 0.105204
vt 0.053602 0.663307
vt 0.083212 0.991226
vt 0.123520 0.991226
vt 0.117071 0.663307
vt 0.367128 0.048868
vt 0.336309 0.673840
vt 0.299323 0.965251
vt 0.266960 0.965251
vt 0.267902 0.673840
vt 0.848116 0.728018
s 0
usemtl Material.002
f 18/1/1 11/2/1 7/3/1 14/4/1
f 15/5/2 14/6/2 7/7/2 8/8/2
f 9/9/3 11/10/3 5/11/3 6/12/3
f 17/13/4 12/14/4 4/15/4 15/16/4
f 12/17/5 10/18/5 3/19/5 4/20/5
f 13/21/6 16/22/6 1/23/6 2/24/6
f 2/25/7 1/26/7 10/27/7 12/28/7
f 13/29/8 2/30/8 12/14/8 17/13/8
f 8/31/9 7/32/9 11/10/9 9/9/9
f 16/33/10 5/34/10 11/2/10 18/1/10
f 1/35/11 16/33/11 18/1/11 10/36/11
f 6/37/12 13/29/12 17/13/12 9/38/12
f 6/39/13 5/40/13 16/41/13 13/42/13
f 9/38/14 17/13/14 15/16/14 8/43/14
f 4/44/15 3/45/15 14/46/15 15/47/15
f 10/36/16 18/1/16 14/4/16 3/48/16
